# xmcd
#
# Track frame offsets:
#	150
#	20735
#	35286
#	46251
#	61826
#	72734
#	87982
#	100885
#	114760
#	124647
#	137120
#
# Disc length: 2106 seconds
#
# Revision: 1
# Processed by: cddbd v1.5.2PL0 Copyright (c) Steve Scherf et al.
# Submitted via: audiograbber 1.83.01
#
DISCID=9208380b
DTITLE=flip grater - while i'm awake i'm at war
DYEAR=1900
DGENRE=
TTITLE0=while i'm awake i'm at war
TTITLE1=burn it when i die
TTITLE2=find me
TTITLE3=careful
TTITLE4=golden trinket (so long)
TTITLE5=i am gone
TTITLE6=oh my word
TTITLE7=my old shoes
TTITLE8=bullet that i ride
TTITLE9=low light
TTITLE10=be kind
EXTD=
EXTT0=
EXTT1=
EXTT2=
EXTT3=
EXTT4=
EXTT5=
EXTT6=
EXTT7=
EXTT8=
EXTT9=
EXTT10=
PLAYORDER=
